<?xml version="1.0" encoding="UTF-8"?>
<svg id="_レイヤー_1" data-name="レイヤー 1" xmlns="http://www.w3.org/2000/svg" viewBox="0 0 197.79 140">
  <defs>
    <style>
      .cls-1 {
        fill: none;
        stroke: #fff;
        stroke-miterlimit: 10;
        stroke-width: 1.94px;
      }
    </style>
  </defs>
  <path class="cls-1" d="m11.41,35.24h27.73s6.04-25.07,19.19-15.51c13.15,9.57-12.91,49.16-12.91,49.16,0,0,27.49-11.55,26.06-39.59-1.42-28.04-40.88-48.83-60.07,5.94Z"/>
  <path class="cls-1" d="m103.04,123.78s-37.68-7.59-32.35-73.57c0,0-.36,24.08-19.55,24.08l7.82,20.46s13.51,24.08,44.08,29.03"/>
  <path class="cls-1" d="m50.27,129.9c-11.96-11.54-17.71-36.38-17.71-36.38v-45.18c-9.43,6.4-18.86,0-18.86,0C23.99,111.91,2.84,117.24,2.84,117.24c0,0,67.99,32.5,47.42,12.65Z"/>
  <path class="cls-1" d="m108.78,137.66s-6.19-34.55-15.36-29.37c0,0,34.91-34.39,5.05-101.61,0,0,12.44,14.6,27.02,0l-1.78,111.39-14.93,19.59Z"/>
  <path class="cls-1" d="m196.94,137.66s-37.68-58.38,0-126.37c0,0-46.92,58.38-68.6,60.88l20.15-3.28"/>
  <path class="cls-1" d="m196.94,137.66c-61.85-14.98-48.45-68.77-48.45-68.77l.45-.49"/>
</svg>